<svg xmlns="http://www.w3.org/2000/svg" viewBox="0 0 47.99998 60" x="0px" y="0px"><g data-name="shape"><path d="M40.22486,28.07905C33.7736,24.09364,28.52874,17.44556,31.2621,9.54993a5.54537,5.54537,0,0,0-.09419-3.03179c-.09033-.28394-.68585-1.66193-1.17108-1.05829C24.79054,12.38946,16.09432,15.6301,7.58338,15.07022c-.77735-.02816-.77686,1.84007-.764,2.23655.02783.86084.14831,2.11792.90454,2.679,6.12109,4.31853,10.67183,11.32738,8.854,19.04555a5.18173,5.18173,0,0,0,.39294,3.00767c.24585.4685.82837,1.035,1.189.29639,4.27222-9.301,12.32183-12.40833,21.94432-9.40937.39357.2558.64376-.06573.8-.51147C41.44953,31.20765,41.182,28.35926,40.22486,28.07905Zm-14.03223.11981a17.57391,17.57391,0,0,0-7.35956,6.47894,23.75675,23.75675,0,0,0-5.84259-14.8106,26.46873,26.46873,0,0,0,15.64185-7.16688A21.044,21.044,0,0,0,33.2107,26.89069,16.27213,16.27213,0,0,0,26.19263,28.19886Z"/></g><text x="0" y="63" fill="#000000" font-size="5px" font-weight="bold" font-family="'Helvetica Neue', Helvetica, Arial-Unicode, Arial, Sans-serif">Created by Gendis Studio</text><text x="0" y="68" fill="#000000" font-size="5px" font-weight="bold" font-family="'Helvetica Neue', Helvetica, Arial-Unicode, Arial, Sans-serif">from the Noun Project</text></svg>